<?xml version="1.0" standalone="no"?>
<!DOCTYPE svg PUBLIC "-//W3C//DTD SVG 20010904//EN"
 "http://www.w3.org/TR/2001/REC-SVG-20010904/DTD/svg10.dtd">
<svg version="1.0" xmlns="http://www.w3.org/2000/svg"
 width="141.000000pt" height="141.000000pt" viewBox="0 0 141.000000 141.000000"
 preserveAspectRatio="xMidYMid meet">
<metadata>
Created by potrace 1.11, written by Peter Selinger 2001-2013
</metadata>
<g transform="translate(0.000000,141.000000) scale(0.100000,-0.100000)"
fill="#000000" stroke="none">
<path d="M574 1345 c-193 -42 -358 -171 -449 -353 -58 -116 -79 -295 -49 -424
15 -65 69 -191 88 -207 13 -11 49 16 54 39 2 8 21 43 43 77 22 34 49 90 59
124 23 77 126 233 184 281 23 18 59 53 81 77 86 95 123 128 169 150 63 29 119
34 165 15 20 -9 65 -24 101 -35 36 -11 76 -25 90 -32 24 -11 70 -53 70 -63 0
-2 -33 -4 -72 -3 -99 1 -180 -29 -213 -79 -20 -31 -47 -114 -43 -132 1 -3 7
-23 14 -45 14 -47 5 -84 -39 -152 -14 -23 -29 -54 -33 -69 -10 -38 -42 -92
-76 -129 -33 -34 -75 -116 -84 -160 -5 -25 3 -41 46 -98 l52 -69 51 7 c491 62
738 612 458 1019 -143 207 -418 315 -667 261z"/>
<path d="M559 306 c-3 -3 -20 -8 -38 -11 -19 -3 -37 -8 -41 -10 -3 -2 -12 0
-20 5 -22 14 -70 -16 -70 -44 0 -12 -3 -26 -7 -30 -4 -3 -7 -19 -8 -36 -1 -26
4 -31 66 -60 57 -26 176 -59 217 -60 31 0 0 63 -61 125 -29 29 -31 43 -12 103
5 16 3 22 -7 22 -8 0 -17 -2 -19 -4z"/>
<path d="M320 229 c-24 -20 -24 -21 -5 -35 28 -20 31 -18 31 21 -1 19 -1 35
-1 35 0 -1 -11 -10 -25 -21z"/>
</g>
</svg>
